<svg xmlns="http://www.w3.org/2000/svg" viewBox="0 0 32 32"><rect width="32" height="32" fill="#1e2a38" rx="6"/><path stroke="#90a4ae" stroke-linecap="round" stroke-width="2" d="m16 23-7 8m7-8 7 8"/><path stroke="#4fc3f7" d="M16 13V3m0 10 8.66-5M16 13l8.66 5M16 13v10m0-10-8.66 5M16 13 7.34 8"/><circle cx="16" cy="13" r="10" fill="none" stroke="#4fc3f7" stroke-width="1.5"/><rect width="4" height="3.5" x="14" y="1.25" fill="#ff9800" rx="1"/><rect width="4" height="3.5" x="22.66" y="6.25" fill="#ff9800" rx="1"/><rect width="4" height="3.5" x="22.66" y="16.25" fill="#ff9800" rx="1"/><rect width="4" height="3.5" x="14" y="21.25" fill="#ff9800" rx="1"/><rect width="4" height="3.5" x="5.34" y="16.25" fill="#ff9800" rx="1"/><rect width="4" height="3.5" x="5.34" y="6.25" fill="#ff9800" rx="1"/><circle cx="16" cy="13" r="2.5" fill="#1e2a38" stroke="#4fc3f7"/><circle cx="16" cy="13" r="1" fill="#4fc3f7"/></svg>